<?xml version="1.0" ?><!DOCTYPE svg  PUBLIC '-//W3C//DTD SVG 1.1//EN'  'http://www.w3.org/Graphics/SVG/1.1/DTD/svg11.dtd'><svg viewBox="0 0 32 32" id="Layer_1" version="1.1" x="0px" xml:space="preserve" xmlns="http://www.w3.org/2000/svg" xmlns:xlink="http://www.w3.org/1999/xlink" y="0px"><g id="no-sound"><path d="M9.121,0.878C8.548,0.304,7.78,0,6.999,0C6.613,0,6.224,0.074,5.853,0.228C4.731,0.692,4,1.786,4,3   L3.999,16.757l-3.12,3.122c-1.172,1.17-1.172,3.07,0,4.242l7,7C8.465,31.707,9.232,32,10,32s1.535-0.293,2.121-0.879L15.242,28   h13.756c1.215,0,2.309-0.73,2.771-1.852c0.465-1.121,0.209-2.412-0.65-3.27L9.121,0.878z M13.828,26.586l-3.121,3.121   C10.452,29.961,10.154,30,10,30s-0.452-0.039-0.707-0.293l-7-7C2.038,22.451,2,22.154,2,22s0.038-0.453,0.293-0.707l3.12-3.121   c0.009-0.01,0.012-0.021,0.021-0.031l8.425,8.426C13.85,26.574,13.837,26.576,13.828,26.586z M15.242,26   c-0.155,0-0.299,0.055-0.447,0.088L5.91,17.203c0.034-0.148,0.089-0.292,0.089-0.446L6,4.711L27.287,26H15.242z M29.922,25.383   C29.768,25.758,29.404,26,28.998,26h-0.297L6,3.297V3c0-0.406,0.242-0.769,0.617-0.924C6.74,2.025,6.868,2,6.999,2   c0.268,0,0.519,0.104,0.707,0.292l21.999,22.001C29.992,24.58,30.078,25.008,29.922,25.383z" fill="white"/></g></svg>
